<svg width="1024" height="768" viewBox="0 0 1024 768" fill="none" xmlns="http://www.w3.org/2000/svg">
<rect width="1024" height="768" fill="white"/>
<path d="M480.259 127.496L891 392.74L480.259 640.871L91 375.627L480.259 127.496Z" fill="#C7C8CA"/>
<path d="M91 375.627L487.993 639.92V742.595L91 483.056V375.627Z" fill="#BCADAA"/>
<path d="M891 392.74L481.977 638.969L486.274 744.496L891 494.464V392.74Z" fill="#7C6D56"/>
<path opacity="0.6" d="M368.701 197.496L668 391.996L526.727 478.851L235 283.422L368.701 197.496Z" fill="#020923"/>
<path d="M470 436.561L531.697 475.42L477.275 508.698L485.419 482.883L470 436.561Z" fill="#515566"/>
<g filter="url(#filter0_i)">
<path d="M654.81 268.842C656.144 268.022 657.834 268.056 659.134 268.929L729.899 316.44C732.346 318.082 732.237 321.716 729.697 323.209L664.215 361.695C662.865 362.488 661.178 362.421 659.895 361.524L591.973 314.013C589.613 312.362 589.718 308.834 592.171 307.327L654.81 268.842Z" fill="#17B709"/>
</g>
<path d="M658.855 269.344L729.621 316.855C731.761 318.292 731.666 321.472 729.443 322.778L663.961 361.264C662.781 361.958 661.304 361.899 660.182 361.114L592.259 313.603C590.194 312.159 590.286 309.072 592.433 307.753L655.072 269.268C656.239 268.551 657.718 268.581 658.855 269.344Z" stroke="#6C6A75"/>
<g filter="url(#filter1_i)">
<path d="M402.83 440.798C404.155 440.003 405.82 440.043 407.106 440.9L455.434 473.106C457.901 474.75 457.785 478.411 455.22 479.896L413.09 504.287C411.805 505.031 410.213 505.002 408.956 504.211L359.873 473.341C357.348 471.753 357.387 468.06 359.945 466.525L402.83 440.798Z" fill="#17B709"/>
</g>
<path d="M406.829 441.316L455.157 473.522C457.315 474.96 457.214 478.164 454.97 479.464L412.839 503.854C411.715 504.505 410.322 504.479 409.222 503.788L360.14 472.918C357.93 471.528 357.964 468.296 360.203 466.954L403.087 441.227C404.247 440.531 405.703 440.566 406.829 441.316Z" stroke="#6C6A75"/>
<path d="M376 566.496L777 318.496L891 392.996L484 637.996L376 566.496Z" fill="#515566"/>
<path d="M424 598.496L440 589.496L447.5 593.496L432 603.496L424 598.496Z" fill="white"/>
<path d="M455 577.496L471 568.496L478.5 572.496L463 582.496L455 577.496Z" fill="white"/>
<path d="M482 559.496L498 550.496L505.5 554.496L490 564.496L482 559.496Z" fill="white"/>
<path d="M506 545.496L522 536.496L529.5 540.496L514 550.496L506 545.496Z" fill="white"/>
<path d="M661 454.496L677 445.496L684.5 449.496L669 459.496L661 454.496Z" fill="white"/>
<path d="M692 433.496L708 424.496L715.5 428.496L700 438.496L692 433.496Z" fill="white"/>
<path d="M719 415.496L735 406.496L742.5 410.496L727 420.496L719 415.496Z" fill="white"/>
<path d="M743 401.496L759 392.496L766.5 396.496L751 406.496L743 401.496Z" fill="white"/>
<path d="M555 517.496L571 508.496L578.5 512.496L563 522.496L555 517.496Z" fill="white"/>
<path d="M579 503.496L595 494.496L602.5 498.496L587 508.496L579 503.496Z" fill="white"/>
<path d="M790 370.496L806 361.496L813.5 365.496L798 375.496L790 370.496Z" fill="white"/>
<path d="M814 356.496L830 347.496L837.5 351.496L822 361.496L814 356.496Z" fill="white"/>
<path d="M366 515.496L378.735 522.343L379 550.496L366.265 542.804L366 515.496Z" fill="#A98F66"/>
<path d="M388.732 515.496L378 522.898L378.268 550.496L389 543.518L388.732 515.496Z" fill="#7C6D56"/>
<path d="M376.616 508.496L389 515.496L378.384 522.496L366 515.497L376.616 508.496Z" fill="#7C6D56"/>
<path d="M335 471.496L383 496.929V536.496L335 507.923V471.496Z" fill="#49D73D"/>
<path d="M423.5 510.221V472.375L383.5 496.156V535.587L423.5 510.221Z" fill="#17B709" stroke="#1DC50E"/>
<path d="M376.077 444.496L424 471.496L382.923 498.496L335 471.497L376.077 444.496Z" fill="#4DE140"/>
<path d="M359 457.496L383 470.408V490.496L359 475.99V457.496Z" fill="#49D73D"/>
<path d="M402.5 477.027V458.394L383.5 470.15V489.567L402.5 477.027Z" fill="#17B709" stroke="#17B709"/>
<path d="M379.308 444.496L403 457.996L382.692 471.496L359 457.997L379.308 444.496Z" fill="#4DE140"/>
<path d="M670 500.496L673.918 502.453L674 510.496L670.082 508.299L670 500.496Z" fill="#A98F66"/>
<path d="M675.927 500.496L673 502.611L673.073 510.496L676 508.503L675.927 500.496Z" fill="#7C6D56"/>
<path d="M662 488.496L675 495.539V506.496L662 498.584V488.496Z" fill="#49D73D"/>
<path d="M686 488.496L675 495.246V506.496L686 499.296V488.496Z" fill="#17B709"/>
<path d="M673.077 481.496L686 488.996L674.923 496.496L662 488.997L673.077 481.496Z" fill="#4DE140"/>
<path d="M668 485.496L675 489.018V494.496L668 490.54V485.496Z" fill="#49D73D"/>
<path d="M679.5 490.64V486.437L675.5 489.137V493.52L679.5 490.64Z" fill="#17B709" stroke="#17B709"/>
<path d="M673.539 481.496L680 484.996L674.461 488.496L668 484.997L673.539 481.496Z" fill="#4DE140"/>
<path d="M696 492.496L698.939 493.475L699 497.496L696.061 496.398L696 492.496Z" fill="#A98F66"/>
<path d="M699.951 492.496L698 493.554L698.049 497.496L700 496.499L699.951 492.496Z" fill="#7C6D56"/>
<path d="M692 485.496L699 489.409V495.496L692 491.1V485.496Z" fill="#49D73D"/>
<path d="M704.5 491.229V486.399L699.5 489.524V494.562L704.5 491.229Z" fill="#17B709" stroke="#17B709"/>
<path d="M698 481.496L705 485.496L699 489.496L692 485.497L698 481.496Z" fill="#4DE140"/>
<path d="M695 483.496L699 485.453V488.496L695 486.298V483.496Z" fill="#49D73D"/>
<path d="M701.5 486.229V484.399L699.5 485.649V487.562L701.5 486.229Z" fill="#17B709" stroke="#17B709"/>
<path d="M698.231 481.496L702 483.496L698.769 485.496L695 483.496L698.231 481.496Z" fill="#4DE140"/>
<path d="M653 513.496L656.918 515.453L657 523.496L653.082 521.299L653 513.496Z" fill="#A98F66"/>
<path d="M658.927 513.496L656 515.611L656.073 523.496L659 521.503L658.927 513.496Z" fill="#7C6D56"/>
<path d="M645 501.496L658 508.539V519.496L645 511.584V501.496Z" fill="#49D73D"/>
<path d="M668.5 512.026V502.39L658.5 508.526V518.572L668.5 512.026Z" fill="#17B709" stroke="#17B709"/>
<path d="M656.077 494.496L669 501.996L657.923 509.496L645 501.997L656.077 494.496Z" fill="#4DE140"/>
<path d="M651 498.496L658 502.018V507.496L651 503.54V498.496Z" fill="#49D73D"/>
<path d="M662.5 503.64V499.437L658.5 502.137V506.52L662.5 503.64Z" fill="#17B709" stroke="#17B709"/>
<path d="M656.539 494.496L663 497.996L657.461 501.496L651 497.997L656.539 494.496Z" fill="#4DE140"/>
<path d="M376.14 238.065L433.861 271.052L355.699 311.873L301.129 277.598L376.14 238.065Z" fill="#CDC3C0"/>
<path d="M301 277.496L356 308.996L354.314 326.552L301 292.996L301 277.496Z" fill="#F0ECED"/>
<path d="M434 270.996L355.338 308.815L354.309 326.275L434 281.496L434 270.996Z" fill="#9C9094"/>
<path opacity="0.43" d="M97 156L121 168.912V189L97 174.493V156Z" fill="#3DC4D7"/>
<path opacity="0.43" d="M141 156L121 168.375V189L141 175.8V156Z" fill="#09ACB7"/>
<path opacity="0.43" d="M117.308 143L141 156.5L120.692 170L97 156.5L117.308 143Z" fill="#64EAEA"/>
<path opacity="0.43" d="M141 130L156 137.825V150L141 141.208V130Z" fill="#3DC4D7"/>
<path opacity="0.43" d="M168 130L156 137.5V150L168 142V130Z" fill="#09ACB7"/>
<path opacity="0.43" d="M153.462 122L168 130L155.538 138L141 130L153.462 122Z" fill="#64EAEA"/>
<path opacity="0.43" d="M148 169L159 174.869V184L148 177.406V169Z" fill="#3DC4D7"/>
<path opacity="0.43" d="M168 169L159 174.625V184L168 178V169Z" fill="#09ACB7"/>
<path opacity="0.43" d="M157.231 163L168 169L158.769 175L148 169L157.231 163Z" fill="#64EAEA"/>
<path d="M232.948 297.851L372.739 383.63L294.945 424.628L158.29 337.555L232.948 297.851Z" fill="#E4E0DF"/>
<path d="M232.317 300.752L366.537 383.176L295.511 420.608L164.152 337.004L232.317 300.752Z" fill="#425870"/>
<path d="M157.71 336.93L294.945 424.628L293.604 454.419L155.41 368.317L157.71 336.93Z" fill="#F0ECED"/>
<path d="M373.265 383.575L294.632 424.571L293.6 454.142L373.257 409.226L373.265 383.575Z" fill="#9C9094"/>
<path d="M234.951 257.7L374.741 343.479L296.948 384.477L160.293 297.404L234.951 257.7Z" fill="#E4E0DF"/>
<path d="M234.319 260.601L368.54 343.025L297.513 380.457L166.155 296.852L234.319 260.601Z" fill="#425870"/>
<path d="M159.712 296.779L296.948 384.477L295.607 414.268L157.412 328.166L159.712 296.779Z" fill="#F0ECED"/>
<path d="M375.267 343.424L296.635 384.42L295.602 413.991L375.26 369.075L375.267 343.424Z" fill="#9C9094"/>
<path d="M236.952 219.556L376.743 305.335L298.95 346.333L162.294 259.261L236.952 219.556Z" fill="#E4E0DF"/>
<path d="M236.321 222.458L370.542 304.881L299.515 342.313L168.156 258.709L236.321 222.458Z" fill="#425870"/>
<path d="M161.714 258.635L298.95 346.333L297.608 376.125L159.414 290.023L161.714 258.635Z" fill="#F0ECED"/>
<path d="M377.269 305.28L298.636 346.276L297.604 375.847L377.261 330.931L377.269 305.28Z" fill="#9C9094"/>
<path d="M238.724 179.953L378.514 265.732L300.721 306.73L164.066 219.657L238.724 179.953Z" fill="#E4E0DF"/>
<path d="M163.486 219.032L300.721 306.73L299.38 336.521L161.185 250.419L163.486 219.032Z" fill="#F0ECED"/>
<path d="M379.041 265.677L300.408 306.673L299.375 336.244L379.033 291.328L379.041 265.677Z" fill="#9C9094"/>
<path d="M239.221 182.964L371.549 265.232L299.95 301.862L175.408 222.474L239.221 182.964Z" fill="#D0CACA"/>
<path d="M171.043 219.622L239.221 182.964L239.219 187.983L175.408 222.474L171.043 219.622Z" fill="#C4C4C4"/>
<path d="M239.221 182.964L371.549 265.232L368.065 267.241L239.219 187.983L239.221 182.964Z" fill="#C4C4C4"/>
<path d="M490.732 136.951L631.232 222.451L553.07 263.271L415.721 176.484L490.732 136.951Z" fill="#E4E0DF"/>
<path d="M490.098 139.841L625 221.996L553.637 259.266L421.611 175.936L490.098 139.841Z" fill="#425870"/>
<path d="M415.137 175.861L553.07 263.271L551.732 292.951L412.835 207.13L415.137 175.861Z" fill="#F0ECED"/>
<path d="M631.76 222.396L552.756 263.215L551.727 292.674L631.76 247.951L631.76 222.396Z" fill="#9C9094"/>
<path d="M492.732 96.9507L633.232 182.451L555.07 223.271L417.721 136.484L492.732 96.9507Z" fill="#E4E0DF"/>
<path d="M492.098 99.8412L627 181.996L555.637 219.266L423.611 135.936L492.098 99.8412Z" fill="#425870"/>
<path d="M417.137 135.861L555.07 223.271L553.732 252.951L414.835 167.13L417.137 135.861Z" fill="#F0ECED"/>
<path d="M633.76 182.396L554.756 223.215L553.727 252.674L633.76 207.951L633.76 182.396Z" fill="#9C9094"/>
<path d="M494.732 58.9507L635.232 144.451L557.07 185.271L419.721 98.4839L494.732 58.9507Z" fill="#E4E0DF"/>
<path d="M494.098 61.8412L629 143.996L557.637 181.266L425.611 97.9359L494.098 61.8412Z" fill="#425870"/>
<path d="M419.137 97.8607L557.07 185.271L555.732 214.951L416.835 129.13L419.137 97.8607Z" fill="#F0ECED"/>
<path d="M635.76 144.396L556.756 185.215L555.727 214.674L635.76 169.951L635.76 144.396Z" fill="#9C9094"/>
<path d="M496.5 19.4965L637 104.996L558.839 145.817L421.489 59.0297L496.5 19.4965Z" fill="#E4E0DF"/>
<path d="M420.906 58.4064L558.839 145.817L557.5 175.496L418.603 89.6755L420.906 58.4064Z" fill="#F0ECED"/>
<path d="M637.529 104.942L558.524 145.76L557.495 175.22L637.529 130.496L637.529 104.942Z" fill="#9C9094"/>
<path d="M497 22.4965L630 104.496L558.062 140.967L432.887 61.8392L497 22.4965Z" fill="#D0CACA"/>
<path d="M479 59.4965L503 72.4084L503 81.4965L479 66.9897L479 59.4965Z" fill="#E5E5E5"/>
<path d="M523 59.6215L503 71.9965L503 81.4964L523 68.2964L523 59.6215Z" fill="#BCADAA"/>
<path d="M499.308 46.4965L523 59.9965L502.692 73.4965L479 59.9966L499.308 46.4965Z" fill="#9C9094"/>
<path d="M428.5 58.9965L497 22.4965L497 27.4965L432.887 61.8392L428.5 58.9965Z" fill="#C4C4C4"/>
<path d="M497 22.4965L630 104.496L626.5 106.496L497 27.4965L497 22.4965Z" fill="#C4C4C4"/>
<path d="M500.5 223.812V213.358L527.5 228.787V240.204L500.5 223.812Z" fill="#F0ECED" stroke="#E4E0DF"/>
<path d="M540 220.997L528 228.497V240.997L540 232.997V220.997Z" fill="#9C9094"/>
<path d="M512 204.496L540 220.996L528 228.497L500 212.497L512 204.496Z" fill="#E4E0DF"/>
<path d="M428.5 135.812V125.358L455.5 140.787V152.204L428.5 135.812Z" fill="#F0ECED" stroke="#E4E0DF"/>
<path d="M468 132.997L456 140.497V152.997L468 144.997V132.997Z" fill="#9C9094"/>
<path d="M440 116.496L468 132.996L456 140.497L428 124.497L440 116.496Z" fill="#E4E0DF"/>
<defs>
<filter id="filter0_i" x="588.554" y="265.975" width="144.824" height="98.6456" filterUnits="userSpaceOnUse" color-interpolation-filters="sRGB">
<feFlood flood-opacity="0" result="BackgroundImageFix"/>
<feBlend mode="normal" in="SourceGraphic" in2="BackgroundImageFix" result="shape"/>
<feColorMatrix in="SourceAlpha" type="matrix" values="0 0 0 0 0 0 0 0 0 0 0 0 0 0 0 0 0 0 127 0" result="hardAlpha"/>
<feOffset dy="4"/>
<feComposite in2="hardAlpha" operator="arithmetic" k2="-1" k3="1"/>
<feColorMatrix type="matrix" values="0 0 0 0 0.423529 0 0 0 0 0.415686 0 0 0 0 0.458824 0 0 0 1 0"/>
<feBlend mode="normal" in2="shape" result="effect1_innerShadow"/>
</filter>
<filter id="filter1_i" x="356.849" y="438.627" width="101.569" height="67.775" filterUnits="userSpaceOnUse" color-interpolation-filters="sRGB">
<feFlood flood-opacity="0" result="BackgroundImageFix"/>
<feBlend mode="normal" in="SourceGraphic" in2="BackgroundImageFix" result="shape"/>
<feColorMatrix in="SourceAlpha" type="matrix" values="0 0 0 0 0 0 0 0 0 0 0 0 0 0 0 0 0 0 127 0" result="hardAlpha"/>
<feOffset dy="4"/>
<feComposite in2="hardAlpha" operator="arithmetic" k2="-1" k3="1"/>
<feColorMatrix type="matrix" values="0 0 0 0 0.423529 0 0 0 0 0.415686 0 0 0 0 0.458824 0 0 0 1 0"/>
<feBlend mode="normal" in2="shape" result="effect1_innerShadow"/>
</filter>
</defs>
</svg>
